<mxfile host="65bd71144e">
    <diagram id="jkyO_WvUEe0aRVjoGL2a" name="Page-1">
        <mxGraphModel dx="896" dy="647" grid="0" gridSize="10" guides="1" tooltips="1" connect="1" arrows="1" fold="1" page="1" pageScale="1" pageWidth="900" pageHeight="1600" background="none" math="0" shadow="0">
            <root>
                <mxCell id="0"/>
                <mxCell id="1" parent="0"/>
                <mxCell id="2" value="&lt;div&gt;dataset.py&lt;/div&gt;&lt;div&gt;&lt;br&gt;&lt;/div&gt;&lt;div&gt;(classificationDataset)&lt;/div&gt;&lt;div&gt;class&lt;/div&gt;" style="rounded=1;whiteSpace=wrap;html=1;strokeColor=#FFFFFF;sketch=1;curveFitting=1;jiggle=2;" parent="1" vertex="1">
                    <mxGeometry x="65" y="180" width="160" height="70" as="geometry"/>
                </mxCell>
                <mxCell id="3" value="augment.py&lt;br&gt;&lt;div style=&quot;color: rgb(230, 237, 243); background-color: rgb(13, 17, 23); font-family: Consolas, &amp;quot;Courier New&amp;quot;, monospace; font-size: 13.5px; line-height: 23px;&quot;&gt;&lt;span style=&quot;color: #d2a8ff;&quot;&gt;classify_transforms for inferences&lt;/span&gt;&lt;/div&gt;&lt;div style=&quot;color: rgb(230, 237, 243); background-color: rgb(13, 17, 23); font-family: Consolas, &amp;quot;Courier New&amp;quot;, monospace; font-size: 13.5px; line-height: 23px;&quot;&gt;&lt;div style=&quot;line-height: 23px;&quot;&gt;&lt;span style=&quot;color: #d2a8ff;&quot;&gt;classify_augmentations for training&lt;/span&gt;&lt;/div&gt;&lt;/div&gt;" style="rounded=1;whiteSpace=wrap;html=1;strokeColor=#FFFFFF;sketch=1;curveFitting=1;jiggle=2;" parent="1" vertex="1">
                    <mxGeometry x="10" y="80" width="270" height="70" as="geometry"/>
                </mxCell>
                <mxCell id="37" style="edgeStyle=none;hachureGap=4;html=1;fontFamily=Architects Daughter;fontSource=https%3A%2F%2Ffonts.googleapis.com%2Fcss%3Ffamily%3DArchitects%2BDaughter;fontSize=16;sketch=1;curveFitting=1;jiggle=2;" edge="1" parent="1" source="5" target="9">
                    <mxGeometry relative="1" as="geometry"/>
                </mxCell>
                <mxCell id="5" value="&lt;span style=&quot;background-color: rgb(13, 13, 13);&quot;&gt;&lt;font style=&quot;&quot; face=&quot;ui-monospace, SFMono-Regular, SF Mono, Menlo, Consolas, Liberation Mono, monospace&quot; color=&quot;#ffffff&quot;&gt;&lt;div style=&quot;font-size: 14px;&quot;&gt;loader.py&lt;/div&gt;&lt;div style=&quot;&quot;&gt;&lt;font style=&quot;font-size: 10px;&quot;&gt;Provides various data loaders for different types of input data&lt;/font&gt;&lt;/div&gt;&lt;/font&gt;&lt;/span&gt;" style="rounded=1;whiteSpace=wrap;html=1;align=center;strokeColor=#FFFFFF;sketch=1;curveFitting=1;jiggle=2;" parent="1" vertex="1">
                    <mxGeometry x="65" y="280" width="157.5" height="75" as="geometry"/>
                </mxCell>
                <mxCell id="6" value="" style="endArrow=classic;html=1;exitX=0.5;exitY=1;exitDx=0;exitDy=0;entryX=0.5;entryY=0;entryDx=0;entryDy=0;rounded=1;strokeColor=#FFFFFF;sketch=1;curveFitting=1;jiggle=2;" parent="1" source="3" target="2" edge="1">
                    <mxGeometry width="50" height="50" relative="1" as="geometry">
                        <mxPoint x="350" y="310" as="sourcePoint"/>
                        <mxPoint x="400" y="260" as="targetPoint"/>
                    </mxGeometry>
                </mxCell>
                <mxCell id="7" value="" style="endArrow=classic;html=1;fontSize=10;exitX=0.5;exitY=1;exitDx=0;exitDy=0;rounded=1;strokeColor=#FFFFFF;sketch=1;curveFitting=1;jiggle=2;" parent="1" source="2" target="5" edge="1">
                    <mxGeometry width="50" height="50" relative="1" as="geometry">
                        <mxPoint x="380" y="280" as="sourcePoint"/>
                        <mxPoint x="430" y="230" as="targetPoint"/>
                    </mxGeometry>
                </mxCell>
                <mxCell id="9" value="&lt;span style=&quot;background-color: rgb(13, 13, 13);&quot;&gt;&lt;font style=&quot;&quot; face=&quot;ui-monospace, SFMono-Regular, SF Mono, Menlo, Consolas, Liberation Mono, monospace&quot; color=&quot;#ffffff&quot;&gt;&lt;div style=&quot;font-size: 14px;&quot;&gt;build.py&lt;/div&gt;&lt;div style=&quot;&quot;&gt;&lt;font style=&quot;font-size: 10px;&quot;&gt;Builds data loaders for training or validation sets&lt;/font&gt;&lt;/div&gt;&lt;/font&gt;&lt;/span&gt;" style="rounded=1;whiteSpace=wrap;html=1;align=center;strokeColor=#FFFFFF;sketch=1;curveFitting=1;jiggle=2;" parent="1" vertex="1">
                    <mxGeometry x="65" y="387.5" width="157.5" height="75" as="geometry"/>
                </mxCell>
                <mxCell id="12" value="&lt;b&gt;&lt;u&gt;&lt;font style=&quot;font-size: 14px;&quot;&gt;Data Handling&lt;/font&gt;&lt;/u&gt;&lt;/b&gt;" style="text;html=1;align=center;verticalAlign=middle;resizable=0;points=[];autosize=1;strokeColor=#FFFFFF;fillColor=none;fontSize=10;rounded=1;sketch=1;curveFitting=1;jiggle=2;" parent="1" vertex="1">
                    <mxGeometry x="170" y="30" width="120" height="30" as="geometry"/>
                </mxCell>
                <mxCell id="13" value="Start" style="ellipse;whiteSpace=wrap;html=1;fontSize=14;rounded=1;strokeColor=#FFFFFF;sketch=1;curveFitting=1;jiggle=2;" parent="1" vertex="1">
                    <mxGeometry x="10" y="20" width="70" height="40" as="geometry"/>
                </mxCell>
                <mxCell id="19" value="&lt;span style=&quot;&quot;&gt;&lt;div style=&quot;&quot;&gt;Validation&lt;/div&gt;&lt;div style=&quot;&quot;&gt;&lt;br&gt;&lt;/div&gt;&lt;div style=&quot;&quot;&gt;validates the trained model&lt;/div&gt;&lt;/span&gt;" style="rounded=1;whiteSpace=wrap;html=1;align=center;strokeColor=#FFFFFF;sketch=1;curveFitting=1;jiggle=2;" parent="1" vertex="1">
                    <mxGeometry x="316.25" y="250" width="157.5" height="60" as="geometry"/>
                </mxCell>
                <mxCell id="20" value="Plot metrics&#10;evelaute" style="rounded=1;whiteSpace=wrap;html=1;strokeColor=#FFFFFF;sketch=1;curveFitting=1;jiggle=2;" parent="1" vertex="1">
                    <mxGeometry x="330" y="120" width="130" height="60" as="geometry"/>
                </mxCell>
                <mxCell id="21" value="" style="endArrow=classic;html=1;fontSize=12;exitX=0.5;exitY=0;exitDx=0;exitDy=0;entryX=0.5;entryY=1;entryDx=0;entryDy=0;rounded=1;strokeColor=#FFFFFF;sketch=1;curveFitting=1;jiggle=2;" parent="1" source="47" target="19" edge="1">
                    <mxGeometry width="50" height="50" relative="1" as="geometry">
                        <mxPoint x="338.75" y="425" as="sourcePoint"/>
                        <mxPoint x="510" y="240" as="targetPoint"/>
                    </mxGeometry>
                </mxCell>
                <mxCell id="23" value="" style="endArrow=classic;html=1;fontSize=12;exitX=1.004;exitY=0.605;exitDx=0;exitDy=0;entryX=0;entryY=0.75;entryDx=0;entryDy=0;rounded=1;strokeColor=#FFFFFF;exitPerimeter=0;sketch=1;curveFitting=1;jiggle=2;" parent="1" source="17" target="46" edge="1">
                    <mxGeometry width="50" height="50" relative="1" as="geometry">
                        <mxPoint x="460" y="290" as="sourcePoint"/>
                        <mxPoint x="260" y="552.5" as="targetPoint"/>
                    </mxGeometry>
                </mxCell>
                <mxCell id="24" value="Front End" style="swimlane;fontStyle=0;childLayout=stackLayout;horizontal=1;startSize=30;horizontalStack=0;resizeParent=1;resizeParentMax=0;resizeLast=0;collapsible=1;marginBottom=0;whiteSpace=wrap;html=1;fontSize=12;rounded=1;strokeColor=#FFFFFF;sketch=1;curveFitting=1;jiggle=2;" parent="1" vertex="1">
                    <mxGeometry x="555" y="340" width="200" height="150" as="geometry"/>
                </mxCell>
                <mxCell id="25" value="Use React Js&amp;nbsp;" style="text;strokeColor=#FFFFFF;fillColor=none;align=left;verticalAlign=middle;spacingLeft=4;spacingRight=4;overflow=hidden;points=[[0,0.5],[1,0.5]];portConstraint=eastwest;rotatable=0;whiteSpace=wrap;html=1;fontSize=12;rounded=1;sketch=1;curveFitting=1;jiggle=2;" parent="24" vertex="1">
                    <mxGeometry y="30" width="200" height="30" as="geometry"/>
                </mxCell>
                <mxCell id="26" value="Use ultralyitcs API" style="text;strokeColor=#FFFFFF;fillColor=none;align=left;verticalAlign=middle;spacingLeft=4;spacingRight=4;overflow=hidden;points=[[0,0.5],[1,0.5]];portConstraint=eastwest;rotatable=0;whiteSpace=wrap;html=1;fontSize=12;rounded=1;sketch=1;curveFitting=1;jiggle=2;" parent="24" vertex="1">
                    <mxGeometry y="60" width="200" height="30" as="geometry"/>
                </mxCell>
                <mxCell id="27" value="Allow live image captures" style="text;strokeColor=#FFFFFF;fillColor=none;align=left;verticalAlign=middle;spacingLeft=4;spacingRight=4;overflow=hidden;points=[[0,0.5],[1,0.5]];portConstraint=eastwest;rotatable=0;whiteSpace=wrap;html=1;fontSize=12;rounded=1;sketch=1;curveFitting=1;jiggle=2;" parent="24" vertex="1">
                    <mxGeometry y="90" width="200" height="30" as="geometry"/>
                </mxCell>
                <mxCell id="70" value="Deploy the app to a hosting service like vercel or netlify" style="text;strokeColor=#FFFFFF;fillColor=none;align=left;verticalAlign=middle;spacingLeft=4;spacingRight=4;overflow=hidden;points=[[0,0.5],[1,0.5]];portConstraint=eastwest;rotatable=0;whiteSpace=wrap;html=1;fontSize=12;rounded=1;sketch=1;curveFitting=1;jiggle=2;" vertex="1" parent="24">
                    <mxGeometry y="120" width="200" height="30" as="geometry"/>
                </mxCell>
                <mxCell id="30" value="Think and iterate" style="ellipse;whiteSpace=wrap;html=1;fontSize=12;rounded=1;strokeColor=#FFFFFF;sketch=1;curveFitting=1;jiggle=2;" parent="1" vertex="1">
                    <mxGeometry x="615" y="532.5" width="80" height="60" as="geometry"/>
                </mxCell>
                <mxCell id="33" value="" style="endArrow=classic;html=1;hachureGap=4;fontFamily=Architects Daughter;fontSource=https%3A%2F%2Ffonts.googleapis.com%2Fcss%3Ffamily%3DArchitects%2BDaughter;fontSize=16;exitX=1;exitY=0.5;exitDx=0;exitDy=0;sketch=1;curveFitting=1;jiggle=2;" edge="1" parent="1" source="13">
                    <mxGeometry width="50" height="50" relative="1" as="geometry">
                        <mxPoint x="430" y="340" as="sourcePoint"/>
                        <mxPoint x="160" y="80" as="targetPoint"/>
                        <Array as="points">
                            <mxPoint x="160" y="40"/>
                        </Array>
                    </mxGeometry>
                </mxCell>
                <mxCell id="17" value="&lt;span style=&quot;background-color: rgb(13, 13, 13);&quot;&gt;&lt;font style=&quot;&quot; face=&quot;ui-monospace, SFMono-Regular, SF Mono, Menlo, Consolas, Liberation Mono, monospace&quot; color=&quot;#ffffff&quot;&gt;&lt;div style=&quot;&quot;&gt;&lt;font style=&quot;font-size: 14px;&quot;&gt;Preprocess Batch&lt;/font&gt;&lt;/div&gt;&lt;div style=&quot;font-size: 10px;&quot;&gt;&lt;br&gt;&lt;/div&gt;&lt;div style=&quot;font-size: 10px;&quot;&gt;Preprocesses a batch of images and classes.&lt;/div&gt;&lt;/font&gt;&lt;/span&gt;" style="rounded=1;whiteSpace=wrap;html=1;align=center;strokeColor=#FFFFFF;sketch=1;curveFitting=1;jiggle=2;" parent="1" vertex="1">
                    <mxGeometry x="66.25" y="490" width="157.5" height="75" as="geometry"/>
                </mxCell>
                <mxCell id="38" style="edgeStyle=none;hachureGap=4;html=1;fontFamily=Architects Daughter;fontSource=https%3A%2F%2Ffonts.googleapis.com%2Fcss%3Ffamily%3DArchitects%2BDaughter;fontSize=16;entryX=0.5;entryY=0;entryDx=0;entryDy=0;exitX=0.5;exitY=1;exitDx=0;exitDy=0;sketch=1;curveFitting=1;jiggle=2;" edge="1" parent="1" source="9" target="17">
                    <mxGeometry relative="1" as="geometry">
                        <mxPoint x="130" y="470" as="sourcePoint"/>
                        <mxPoint x="145.40760869565224" y="405" as="targetPoint"/>
                    </mxGeometry>
                </mxCell>
                <mxCell id="61" value="" style="endArrow=classic;html=1;hachureGap=4;fontFamily=Architects Daughter;fontSource=https%3A%2F%2Ffonts.googleapis.com%2Fcss%3Ffamily%3DArchitects%2BDaughter;fontSize=16;exitX=0.5;exitY=0;exitDx=0;exitDy=0;entryX=0.5;entryY=1;entryDx=0;entryDy=0;sketch=1;curveFitting=1;jiggle=2;" edge="1" parent="1" source="19" target="20">
                    <mxGeometry width="50" height="50" relative="1" as="geometry">
                        <mxPoint x="430" y="320" as="sourcePoint"/>
                        <mxPoint x="480" y="270" as="targetPoint"/>
                    </mxGeometry>
                </mxCell>
                <mxCell id="46" value="NeuralNetwork" style="swimlane;childLayout=stackLayout;resizeParent=1;resizeParentMax=0;horizontal=0;startSize=20;horizontalStack=0;html=1;hachureGap=4;fontFamily=Architects Daughter;fontSource=https%3A%2F%2Ffonts.googleapis.com%2Fcss%3Ffamily%3DArchitects%2BDaughter;fontSize=10;sketch=1;curveFitting=1;jiggle=2;" vertex="1" parent="1">
                    <mxGeometry x="270" y="370" width="230" height="222.5" as="geometry"/>
                </mxCell>
                <mxCell id="47" value="&lt;font style=&quot;font-size: 12px;&quot;&gt;Data&lt;/font&gt;" style="swimlane;startSize=20;horizontal=0;html=1;hachureGap=4;fontFamily=Architects Daughter;fontSource=https%3A%2F%2Ffonts.googleapis.com%2Fcss%3Ffamily%3DArchitects%2BDaughter;fontSize=10;sketch=1;curveFitting=1;jiggle=2;" vertex="1" parent="46">
                    <mxGeometry x="20" width="210" height="72.5" as="geometry"/>
                </mxCell>
                <mxCell id="58" value="Utilize the dataset.py, &lt;br&gt;loader.py and build.py&lt;br&gt;&amp;nbsp;and preprocessing &lt;br&gt;for handling data with nc=4" style="text;html=1;align=left;verticalAlign=middle;resizable=0;points=[];autosize=1;strokeColor=none;fillColor=none;fontSize=12;fontFamily=Architects Daughter;hachureGap=4;fontSource=https%3A%2F%2Ffonts.googleapis.com%2Fcss%3Ffamily%3DArchitects%2BDaughter;sketch=1;curveFitting=1;jiggle=2;" vertex="1" parent="47">
                    <mxGeometry x="30" y="1.25" width="180" height="70" as="geometry"/>
                </mxCell>
                <mxCell id="48" value="nn &lt;font style=&quot;font-size: 12px;&quot;&gt;Essentials&lt;/font&gt;" style="swimlane;startSize=20;horizontal=0;html=1;hachureGap=4;fontFamily=Architects Daughter;fontSource=https%3A%2F%2Ffonts.googleapis.com%2Fcss%3Ffamily%3DArchitects%2BDaughter;fontSize=10;sketch=1;curveFitting=1;jiggle=2;" vertex="1" parent="46">
                    <mxGeometry x="20" y="72.5" width="210" height="80" as="geometry"/>
                </mxCell>
                <mxCell id="59" value="Optimizer: AdamW&lt;br&gt;loss funtion: &lt;br&gt;nn.CrossEntropyLoss" style="text;html=1;align=left;verticalAlign=middle;resizable=0;points=[];autosize=1;strokeColor=none;fillColor=none;fontSize=12;fontFamily=Architects Daughter;hachureGap=4;fontSource=https%3A%2F%2Ffonts.googleapis.com%2Fcss%3Ffamily%3DArchitects%2BDaughter;sketch=1;curveFitting=1;jiggle=2;" vertex="1" parent="48">
                    <mxGeometry x="30" y="10" width="140" height="60" as="geometry"/>
                </mxCell>
                <mxCell id="49" value="Training" style="swimlane;startSize=15;horizontal=0;html=1;hachureGap=4;fontFamily=Architects Daughter;fontSource=https%3A%2F%2Ffonts.googleapis.com%2Fcss%3Ffamily%3DArchitects%2BDaughter;fontSize=10;sketch=1;curveFitting=1;jiggle=2;" vertex="1" parent="46">
                    <mxGeometry x="20" y="152.5" width="210" height="70" as="geometry"/>
                </mxCell>
                <mxCell id="60" value="use double for loops &lt;br&gt;for the training follows &lt;br&gt;the pytorch's methodology&amp;nbsp;" style="text;html=1;align=left;verticalAlign=middle;resizable=0;points=[];autosize=1;strokeColor=none;fillColor=none;fontSize=12;fontFamily=Architects Daughter;hachureGap=4;fontSource=https%3A%2F%2Ffonts.googleapis.com%2Fcss%3Ffamily%3DArchitects%2BDaughter;sketch=1;curveFitting=1;jiggle=2;" vertex="1" parent="49">
                    <mxGeometry x="30" y="5" width="180" height="60" as="geometry"/>
                </mxCell>
                <mxCell id="62" value="" style="shape=lineEllipse;perimeter=ellipsePerimeter;whiteSpace=wrap;html=1;backgroundOutline=1;hachureGap=4;fontFamily=Architects Daughter;fontSource=https%3A%2F%2Ffonts.googleapis.com%2Fcss%3Ffamily%3DArchitects%2BDaughter;fontSize=20;sketch=1;curveFitting=1;jiggle=2;" vertex="1" parent="1">
                    <mxGeometry x="565" y="80" width="190" height="180" as="geometry"/>
                </mxCell>
                <mxCell id="63" value="&lt;div style=&quot;text-align: justify;&quot;&gt;&lt;span style=&quot;background-color: initial;&quot;&gt;&lt;font style=&quot;font-size: 13px;&quot;&gt;use colab for GPU based training&lt;/font&gt;&lt;/span&gt;&lt;/div&gt;" style="text;html=1;strokeColor=none;fillColor=none;align=center;verticalAlign=middle;whiteSpace=wrap;rounded=0;hachureGap=4;fontFamily=Architects Daughter;fontSource=https%3A%2F%2Ffonts.googleapis.com%2Fcss%3Ffamily%3DArchitects%2BDaughter;fontSize=20;sketch=1;curveFitting=1;jiggle=2;" vertex="1" parent="1">
                    <mxGeometry x="605" y="110" width="120" height="50" as="geometry"/>
                </mxCell>
                <mxCell id="64" value="&lt;div style=&quot;text-align: justify;&quot;&gt;&lt;span style=&quot;background-color: initial;&quot;&gt;use Ultralytics hub and thier API to access the trained model&lt;/span&gt;&lt;/div&gt;" style="text;html=1;strokeColor=none;fillColor=none;align=center;verticalAlign=middle;whiteSpace=wrap;rounded=0;hachureGap=4;fontFamily=Architects Daughter;fontSource=https%3A%2F%2Ffonts.googleapis.com%2Fcss%3Ffamily%3DArchitects%2BDaughter;fontSize=13;sketch=1;curveFitting=1;jiggle=2;" vertex="1" parent="1">
                    <mxGeometry x="600" y="190" width="130" height="40" as="geometry"/>
                </mxCell>
                <mxCell id="66" value="" style="endArrow=classic;html=1;exitX=1;exitY=0.5;exitDx=0;exitDy=0;entryX=0;entryY=0;entryDx=0;entryDy=0;sketch=1;curveFitting=1;jiggle=2;" edge="1" parent="1" source="20" target="62">
                    <mxGeometry width="50" height="50" relative="1" as="geometry">
                        <mxPoint x="420" y="330" as="sourcePoint"/>
                        <mxPoint x="470" y="280" as="targetPoint"/>
                        <Array as="points">
                            <mxPoint x="520" y="150"/>
                            <mxPoint x="520" y="106"/>
                        </Array>
                    </mxGeometry>
                </mxCell>
                <mxCell id="68" value="" style="endArrow=classic;html=1;exitX=0.5;exitY=1;exitDx=0;exitDy=0;entryX=0.5;entryY=0;entryDx=0;entryDy=0;sketch=1;curveFitting=1;jiggle=2;" edge="1" parent="1" source="62" target="24">
                    <mxGeometry width="50" height="50" relative="1" as="geometry">
                        <mxPoint x="420" y="330" as="sourcePoint"/>
                        <mxPoint x="470" y="280" as="targetPoint"/>
                    </mxGeometry>
                </mxCell>
                <mxCell id="69" value="With access to the model using the API&lt;br&gt;build the Front End for live inference." style="text;html=1;align=center;verticalAlign=middle;resizable=0;points=[];autosize=1;strokeColor=none;fillColor=none;sketch=1;curveFitting=1;jiggle=2;" vertex="1" parent="1">
                    <mxGeometry x="540" y="280" width="230" height="40" as="geometry"/>
                </mxCell>
                <mxCell id="71" value="" style="endArrow=classic;html=1;exitX=0.499;exitY=1.067;exitDx=0;exitDy=0;exitPerimeter=0;sketch=1;curveFitting=1;jiggle=2;" edge="1" parent="1" source="70" target="30">
                    <mxGeometry width="50" height="50" relative="1" as="geometry">
                        <mxPoint x="410" y="320" as="sourcePoint"/>
                        <mxPoint x="460" y="270" as="targetPoint"/>
                    </mxGeometry>
                </mxCell>
                <mxCell id="74" value="&lt;b style=&quot;font-size: 12px;&quot;&gt;&lt;u&gt;Model building&lt;br&gt;and Inferences&lt;br&gt;&lt;/u&gt;&lt;/b&gt;" style="text;html=1;align=center;verticalAlign=middle;resizable=0;points=[];autosize=1;strokeColor=#FFFFFF;fillColor=none;fontSize=10;rounded=1;sketch=1;curveFitting=1;jiggle=2;" vertex="1" parent="1">
                    <mxGeometry x="340" y="30" width="110" height="40" as="geometry"/>
                </mxCell>
                <mxCell id="75" value="&lt;b style=&quot;font-size: 12px;&quot;&gt;&lt;u&gt;Saving the model &lt;br&gt;and building &lt;br&gt;&lt;div style=&quot;text-align: left;&quot;&gt;&lt;b style=&quot;background-color: initial;&quot;&gt;&lt;u&gt;the front end&lt;/u&gt;&lt;/b&gt;&lt;/div&gt;&lt;/u&gt;&lt;/b&gt;" style="text;html=1;align=center;verticalAlign=middle;resizable=0;points=[];autosize=1;strokeColor=#FFFFFF;fillColor=none;fontSize=10;rounded=1;sketch=1;curveFitting=1;jiggle=2;" vertex="1" parent="1">
                    <mxGeometry x="600" y="10" width="120" height="60" as="geometry"/>
                </mxCell>
            </root>
        </mxGraphModel>
    </diagram>
</mxfile>